<?xml version="1.0" encoding="utf-8"?>
<!-- Generator: Adobe Illustrator 17.0.0, SVG Export Plug-In . SVG Version: 6.00 Build 0)  -->
<!DOCTYPE svg PUBLIC "-//W3C//DTD SVG 1.1//EN" "http://www.w3.org/Graphics/SVG/1.1/DTD/svg11.dtd">
<svg version="1.1" id="Layer_1" xmlns="http://www.w3.org/2000/svg" xmlns:xlink="http://www.w3.org/1999/xlink" x="0px" y="0px"
	 width="39.966px" height="39.966px" viewBox="0 0 39.966 39.966" enable-background="new 0 0 39.966 39.966" xml:space="preserve">
<g>
	<path fill="#FFFFFF" d="M15.162,16.6h2.066v-2.008c0-0.885,0.022-2.251,0.665-3.096c0.677-0.896,1.607-1.504,3.207-1.504
		c2.606,0,3.704,0.372,3.704,0.372l-0.516,3.061c0,0-0.861-0.249-1.664-0.249c-0.804,0-1.523,0.288-1.523,1.091V16.6h3.295
		l-0.23,2.99H21.1v10.385h-3.872V19.589h-2.066V16.6z"/>
	<path fill="#FFFFFF" d="M19.983,1.063c10.433,0,18.92,8.487,18.92,18.92s-8.487,18.92-18.92,18.92s-18.92-8.487-18.92-18.92
		S9.55,1.063,19.983,1.063 M19.983,0C8.947,0,0,8.947,0,19.983s8.947,19.983,19.983,19.983c11.036,0,19.983-8.947,19.983-19.983
		S31.019,0,19.983,0L19.983,0z"/>
</g>
</svg>
