<?xml version="1.0" encoding="utf-8"?>
<!-- Generator: Adobe Illustrator 17.0.0, SVG Export Plug-In . SVG Version: 6.00 Build 0)  -->
<!DOCTYPE svg PUBLIC "-//W3C//DTD SVG 1.1//EN" "http://www.w3.org/Graphics/SVG/1.1/DTD/svg11.dtd">
<svg version="1.1" id="Layer_1" xmlns="http://www.w3.org/2000/svg" xmlns:xlink="http://www.w3.org/1999/xlink" x="0px" y="0px"
	 width="39.966px" height="39.966px" viewBox="0 0 39.966 39.966" enable-background="new 0 0 39.966 39.966" xml:space="preserve">
<g>
	<path fill="#FFFFFF" d="M29.992,13.775c-0.736,0.326-1.528,0.547-2.358,0.646c0.849-0.508,1.5-1.313,1.805-2.271
		c-0.794,0.47-1.672,0.812-2.609,0.995c-0.747-0.798-1.816-1.297-2.997-1.297c-2.267,0-4.105,1.839-4.105,4.106
		c0,0.322,0.035,0.635,0.106,0.935c-3.413-0.172-6.438-1.805-8.465-4.291c-0.353,0.609-0.556,1.314-0.556,2.066
		c0,1.423,0.725,2.681,1.827,3.418c-0.673-0.021-1.307-0.207-1.861-0.513v0.051c0,1.991,1.415,3.65,3.295,4.027
		c-0.345,0.096-0.707,0.145-1.083,0.145c-0.264,0-0.523-0.025-0.772-0.073c0.522,1.631,2.038,2.819,3.836,2.851
		c-1.405,1.102-3.177,1.758-5.1,1.758c-0.332,0-0.659-0.018-0.98-0.057c1.817,1.164,3.976,1.844,6.295,1.844
		c7.555,0,11.685-6.257,11.685-11.684c0-0.178-0.004-0.356-0.011-0.531C28.746,15.322,29.443,14.598,29.992,13.775"/>
	<path fill="#FFFFFF" d="M19.983,1.063c10.433,0,18.92,8.487,18.92,18.92s-8.487,18.92-18.92,18.92s-18.92-8.487-18.92-18.92
		S9.55,1.063,19.983,1.063 M19.983,0C8.947,0,0,8.947,0,19.983s8.947,19.983,19.983,19.983c11.036,0,19.983-8.947,19.983-19.983
		S31.019,0,19.983,0L19.983,0z"/>
</g>
</svg>
