<?xml version="1.0" encoding="utf-8"?>
<!-- Generator: Adobe Illustrator 17.0.0, SVG Export Plug-In . SVG Version: 6.00 Build 0)  -->
<!DOCTYPE svg PUBLIC "-//W3C//DTD SVG 1.1//EN" "http://www.w3.org/Graphics/SVG/1.1/DTD/svg11.dtd">
<svg version="1.1" id="Layer_1" xmlns="http://www.w3.org/2000/svg" xmlns:xlink="http://www.w3.org/1999/xlink" x="0px" y="0px"
	 width="89.74px" height="89.74px" viewBox="0 0 89.74 89.74" enable-background="new 0 0 89.74 89.74" xml:space="preserve">
<g>
	<g>
		<g>
			<path fill="#A2E3F7" d="M44.87,2.387c23.425,0,42.483,19.058,42.483,42.483S68.295,87.353,44.87,87.353S2.387,68.295,2.387,44.87
				S21.444,2.387,44.87,2.387 M44.87,0C20.089,0,0,20.089,0,44.87s20.089,44.87,44.87,44.87s44.87-20.089,44.87-44.87
				S69.65,0,44.87,0L44.87,0z"/>
			<circle fill="#A2E3F7" cx="44.87" cy="44.87" r="1.294"/>
			<path fill="#A2E3F7" d="M44.87,8.592c-20.036,0-36.278,16.242-36.278,36.278S24.834,81.147,44.87,81.147
				S81.147,64.905,81.147,44.87S64.905,8.592,44.87,8.592z M11.615,44.87c0-18.337,14.918-33.254,33.254-33.254v8.751
				c-13.533,0-24.503,10.97-24.503,24.503C20.366,44.87,11.615,44.87,11.615,44.87z M35.323,44.87H23.231
				c0-11.932,9.707-21.639,21.639-21.639v12.093C39.606,35.323,35.323,39.606,35.323,44.87z M44.87,51.552
				c-3.691,0-6.683-2.992-6.683-6.683s2.992-6.683,6.683-6.683s6.683,2.992,6.683,6.683S48.56,51.552,44.87,51.552z"/>
		</g>
	</g>
</g>
</svg>
