<?xml version="1.0" encoding="utf-8"?>
<!-- Generator: Adobe Illustrator 17.0.0, SVG Export Plug-In . SVG Version: 6.00 Build 0)  -->
<!DOCTYPE svg PUBLIC "-//W3C//DTD SVG 1.1//EN" "http://www.w3.org/Graphics/SVG/1.1/DTD/svg11.dtd">
<svg version="1.1" id="Layer_1" xmlns="http://www.w3.org/2000/svg" xmlns:xlink="http://www.w3.org/1999/xlink" x="0px" y="0px"
	 width="89.74px" height="89.74px" viewBox="219.48 0 89.74 89.74" enable-background="new 219.48 0 89.74 89.74"
	 xml:space="preserve">
<path fill="#19BEF0" d="M264.35,2.387c23.425,0,42.483,19.058,42.483,42.483s-19.058,42.483-42.483,42.483
	c-23.425,0-42.483-19.058-42.483-42.483S240.924,2.387,264.35,2.387 M264.35,0c-24.781,0-44.87,20.089-44.87,44.87
	s20.089,44.87,44.87,44.87c24.781,0,44.87-20.089,44.87-44.87S289.13,0,264.35,0L264.35,0z"/>
<path fill="#19BEF0" d="M264.35,8.592c-20.036,0-36.277,16.242-36.277,36.278s16.242,36.278,36.277,36.278
	c20.035,0,36.277-16.243,36.277-36.278C300.627,24.834,284.385,8.592,264.35,8.592z M259.681,44.965
	c0,0.544-0.058,1.074-0.167,1.585l10.763,4.516c1.358-2.05,3.685-3.403,6.329-3.403c4.191,0,7.588,3.397,7.588,7.588
	s-3.397,7.588-7.588,7.588c-4.19,0-7.588-3.397-7.588-7.588c0-0.544,0.058-1.074,0.167-1.585l-10.762-4.516
	c-1.358,2.05-3.685,3.403-6.329,3.403c-4.191,0-7.588-3.397-7.588-7.588s3.397-7.588,7.588-7.588c2.626,0,4.94,1.334,6.302,3.361
	l10.801-4.617c-0.116-0.527-0.178-1.073-0.178-1.634c0-4.19,3.397-7.588,7.588-7.588s7.588,3.397,7.588,7.588
	s-3.397,7.588-7.588,7.588c-2.626,0-4.94-1.334-6.302-3.361l-10.801,4.617C259.618,43.858,259.681,44.404,259.681,44.965z"/>
</svg>
