<?xml version="1.0" encoding="utf-8"?>
<!-- Generator: Adobe Illustrator 17.0.0, SVG Export Plug-In . SVG Version: 6.00 Build 0)  -->
<!DOCTYPE svg PUBLIC "-//W3C//DTD SVG 1.1//EN" "http://www.w3.org/Graphics/SVG/1.1/DTD/svg11.dtd">
<svg version="1.1" id="Layer_1" xmlns="http://www.w3.org/2000/svg" xmlns:xlink="http://www.w3.org/1999/xlink" x="0px" y="0px"
	 width="89.74px" height="89.74px" viewBox="109.74 0 89.74 89.74" enable-background="new 109.74 0 89.74 89.74"
	 xml:space="preserve">
<g>
	<g>
		<g>
			<g>
				<path fill="#7BD6F2" d="M128.982,19.242c7.098-7.099,15.641-10.65,25.628-10.65c9.985,0,18.528,3.551,25.628,10.649
					c7.098,7.1,10.649,15.643,10.649,25.628c0,9.987-3.551,18.53-10.649,25.628c-7.1,7.1-15.643,10.649-25.628,10.649
					c-9.987,0-18.53-3.549-25.628-10.649c-7.101-7.097-10.65-15.64-10.65-25.627C118.332,34.885,121.881,26.342,128.982,19.242z
					 M134.248,43.7c1.091,0,1.638-0.507,1.638-1.521c0-2.496,0.545-4.681,1.638-6.553c1.092-1.873,2.379-2.809,3.862-2.809
					c1.481,0,2.769,0.936,3.862,2.809c1.092,1.872,1.638,4.057,1.638,6.553c0,1.015,0.507,1.521,1.521,1.521
					c1.013,0,1.521-0.507,1.521-1.521c0-3.432-0.819-6.337-2.458-8.718c-1.638-2.379-3.668-3.569-6.085-3.569
					c-2.419,0-4.467,1.191-6.144,3.569c-1.679,2.381-2.516,5.286-2.516,8.718c0,0.391,0.155,0.743,0.468,1.053
					C133.505,43.544,133.856,43.7,134.248,43.7z M172.749,54.583c0.389-0.858,0.155-1.56-0.702-2.107
					c-1.015-0.389-1.717-0.117-2.106,0.819c-1.405,3.121-3.492,5.617-6.261,7.49c-2.77,1.872-5.793,2.808-9.069,2.808
					c-3.277,0-6.301-0.936-9.069-2.808c-2.77-1.873-4.856-4.369-6.261-7.49c-0.546-0.936-1.249-1.208-2.106-0.819
					c-0.936,0.625-1.17,1.327-0.702,2.107c1.638,3.668,4.114,6.612,7.431,8.836c3.315,2.223,6.884,3.335,10.708,3.335
					c3.822,0,7.373-1.112,10.649-3.335C168.536,61.195,171.032,58.251,172.749,54.583z M174.855,43.7
					c1.013,0,1.521-0.507,1.521-1.521c0-3.432-0.839-6.337-2.516-8.718c-1.679-2.379-3.726-3.569-6.144-3.569
					c-2.419,0-4.447,1.191-6.085,3.569c-1.638,2.381-2.458,5.286-2.458,8.718c0,1.015,0.507,1.521,1.521,1.521
					c1.013,0,1.521-0.507,1.521-1.521c0-2.496,0.545-4.681,1.638-6.553c1.092-1.873,2.379-2.809,3.862-2.809
					c1.481,0,2.788,0.936,3.921,2.809c1.13,1.872,1.697,4.057,1.697,6.553C173.334,43.193,173.841,43.7,174.855,43.7z"/>
			</g>
			<path fill="#7BD6F2" d="M154.61,2.387c23.425,0,42.483,19.058,42.483,42.483s-19.058,42.483-42.483,42.483
				s-42.483-19.058-42.483-42.483S131.185,2.387,154.61,2.387 M154.61,0c-24.781,0-44.87,20.089-44.87,44.87
				s20.089,44.87,44.87,44.87s44.87-20.089,44.87-44.87S179.391,0,154.61,0L154.61,0z"/>
		</g>
	</g>
</g>
</svg>
