<?xml version="1.0" encoding="utf-8"?>
<!-- Generator: Adobe Illustrator 17.0.0, SVG Export Plug-In . SVG Version: 6.00 Build 0)  -->
<!DOCTYPE svg PUBLIC "-//W3C//DTD SVG 1.1//EN" "http://www.w3.org/Graphics/SVG/1.1/DTD/svg11.dtd">
<svg version="1.1" id="Layer_1" xmlns="http://www.w3.org/2000/svg" xmlns:xlink="http://www.w3.org/1999/xlink" x="0px" y="0px"
	 width="511.078px" height="145.389px" viewBox="0 0 511.078 145.389" enable-background="new 0 0 511.078 145.389"
	 xml:space="preserve">
<g>
	<g>
		<g>
			<linearGradient id="SVGID_1_" gradientUnits="userSpaceOnUse" x1="124.2132" y1="41.2029" x2="155.8747" y2="41.2029">
				<stop  offset="0" style="stop-color:#4DA5DC"/>
				<stop  offset="1" style="stop-color:#0BBBBD"/>
			</linearGradient>
			<path fill="url(#SVGID_1_)" d="M124.213,16.353c3.2-0.534,7.539-0.989,12.788-0.989c6.546,0,11.342,1.521,14.384,4.262
				c2.743,2.436,4.489,6.164,4.489,10.807c0,4.719-1.367,8.372-3.957,11.036c-3.5,3.73-9.21,5.632-15.527,5.632
				c-2.128,0-4.107-0.152-5.478-0.38v20.322h-6.699V16.353z M130.912,41.317c1.064,0.303,3.275,0.457,5.478,0.457
				c7.996,0,12.867-3.959,12.867-10.96c0-6.926-4.796-10.199-12.103-10.199c-2.967,0-5.103,0.228-6.243,0.457V41.317z"/>
			<linearGradient id="SVGID_2_" gradientUnits="userSpaceOnUse" x1="162.5642" y1="41.3547" x2="170.8627" y2="41.3547">
				<stop  offset="0" style="stop-color:#4DA5DC"/>
				<stop  offset="1" style="stop-color:#0BBBBD"/>
			</linearGradient>
			<path fill="url(#SVGID_2_)" d="M170.863,19.855c0,2.282-1.675,4.109-4.264,4.109c-2.435,0-4.107-1.827-4.032-4.109
				c-0.075-2.284,1.671-4.187,4.107-4.187C169.109,15.667,170.788,17.494,170.863,19.855z M163.327,67.042V30.28h6.621v36.762
				H163.327z"/>
			<linearGradient id="SVGID_3_" gradientUnits="userSpaceOnUse" x1="178.4689" y1="48.6611" x2="207.5414" y2="48.6611">
				<stop  offset="0" style="stop-color:#4DA5DC"/>
				<stop  offset="1" style="stop-color:#0BBBBD"/>
			</linearGradient>
			<path fill="url(#SVGID_3_)" d="M207.392,65.672c-1.754,0.912-5.636,2.207-10.582,2.207c-11.113,0-18.341-7.535-18.341-18.798
				c0-11.342,7.76-19.638,19.788-19.638c3.882,0,7.457,0.99,9.285,1.903l-1.521,5.175c-1.596-0.912-4.11-1.75-7.764-1.75
				c-8.446,0-13.017,6.317-13.017,13.927c0,8.524,5.482,13.777,12.867,13.777c3.728,0,6.239-0.991,8.142-1.828L207.392,65.672z"/>
			<linearGradient id="SVGID_4_" gradientUnits="userSpaceOnUse" x1="212.0228" y1="43.7525" x2="233.8677" y2="43.7525">
				<stop  offset="0" style="stop-color:#4DA5DC"/>
				<stop  offset="1" style="stop-color:#0BBBBD"/>
			</linearGradient>
			<path fill="url(#SVGID_4_)" d="M224.276,19.626V30.28h9.592v5.023h-9.592V55.17c0,4.566,1.296,7.153,5.024,7.153
				c1.75,0,2.971-0.229,3.882-0.457l0.303,5.025c-1.293,0.609-3.35,0.989-6.01,0.989c-3.046,0-5.635-1.066-7.231-2.816
				c-1.754-2.132-2.51-5.328-2.51-9.667V35.303h-5.71V30.28h5.71v-8.905L224.276,19.626z"/>
			<linearGradient id="SVGID_5_" gradientUnits="userSpaceOnUse" x1="241.1666" y1="49.0799" x2="272.4498" y2="49.0799">
				<stop  offset="0" style="stop-color:#4DA5DC"/>
				<stop  offset="1" style="stop-color:#0BBBBD"/>
			</linearGradient>
			<path fill="url(#SVGID_5_)" d="M266.586,67.042l-0.378-6.012h-0.154c-1.671,2.816-5.403,6.849-12.252,6.849
				c-7.153,0-12.635-4.339-12.635-16.136V30.28h6.7v20.322c0,7.155,2.286,11.797,8.067,11.797c4.871,0,7.992-3.35,8.981-6.089
				c0.383-1.066,0.607-2.359,0.607-3.502V30.28h6.624v26.714c0,3.882,0.15,7.08,0.303,10.048H266.586z"/>
			<linearGradient id="SVGID_6_" gradientUnits="userSpaceOnUse" x1="282.9414" y1="48.2425" x2="314.5243" y2="48.2425">
				<stop  offset="0" style="stop-color:#4DA5DC"/>
				<stop  offset="1" style="stop-color:#0BBBBD"/>
			</linearGradient>
			<path fill="url(#SVGID_6_)" d="M283.245,40.174c0-3.805-0.15-6.924-0.303-9.894h5.939l0.3,6.012h0.232
				c1.825-3.425,6.085-6.85,12.177-6.85c5.021,0,12.934,3.045,12.934,15.602v21.997h-6.617V45.883c0-6.012-2.21-10.96-8.528-10.96
				c-4.414,0-7.764,3.121-8.978,6.851c-0.307,0.836-0.532,1.978-0.532,3.119v22.148h-6.625V40.174z"/>
			<linearGradient id="SVGID_7_" gradientUnits="userSpaceOnUse" x1="322.8127" y1="48.6611" x2="355.3138" y2="48.6611">
				<stop  offset="0" style="stop-color:#4DA5DC"/>
				<stop  offset="1" style="stop-color:#0BBBBD"/>
			</linearGradient>
			<path fill="url(#SVGID_7_)" d="M329.205,49.841c0.157,9.057,5.86,12.787,12.635,12.787c4.796,0,7.764-0.838,10.199-1.903
				l1.143,4.794c-2.282,1.066-6.392,2.36-12.256,2.36c-11.338,0-18.113-7.535-18.113-18.572c0-11.186,6.55-19.865,17.356-19.865
				c11.945,0,15.145,10.503,15.145,17.277c0,1.369-0.153,2.435-0.307,3.121H329.205z M348.846,45.045
				c0.075-4.185-1.753-10.806-9.288-10.806c-6.771,0-9.742,6.164-10.274,10.806H348.846z"/>
		</g>
		<linearGradient id="SVGID_8_" gradientUnits="userSpaceOnUse" x1="379.1031" y1="41.2825" x2="426.4365" y2="41.2825">
			<stop  offset="0" style="stop-color:#4DA5DC"/>
			<stop  offset="1" style="stop-color:#0BBBBD"/>
		</linearGradient>
		<path fill="url(#SVGID_8_)" d="M426.437,67.879h-6.9l-5.639-14.913h-22.553l-5.306,14.913h-6.936l20.402-53.194h6.454
			L426.437,67.879z M411.857,47.367l-8.346-22.665c-0.272-0.742-0.543-1.93-0.817-3.561h-0.148
			c-0.247,1.508-0.532,2.696-0.852,3.561l-8.273,22.665H411.857z"/>
		<linearGradient id="SVGID_9_" gradientUnits="userSpaceOnUse" x1="432.4597" y1="57.1771" x2="467.4038" y2="57.1771">
			<stop  offset="0" style="stop-color:#4DA5DC"/>
			<stop  offset="1" style="stop-color:#0BBBBD"/>
		</linearGradient>
		<path fill="url(#SVGID_9_)" d="M438.691,62.39h-0.148v22.961h-6.083V29.895h6.083v6.677h0.148
			c2.992-5.045,7.37-7.569,13.131-7.569c4.897,0,8.719,1.701,11.464,5.101c2.745,3.4,4.118,7.957,4.118,13.669
			c0,6.357-1.548,11.445-4.637,15.265c-3.093,3.82-7.322,5.731-12.687,5.731C445.158,68.769,441.363,66.643,438.691,62.39z
			 M438.543,47.069v5.306c0,3.14,1.021,5.804,3.061,7.992c2.04,2.19,4.629,3.284,7.771,3.284c3.683,0,6.57-1.411,8.661-4.228
			c2.089-2.82,3.134-6.739,3.134-11.76c0-4.228-0.976-7.543-2.93-9.943c-1.954-2.398-4.599-3.597-7.938-3.597
			c-3.537,0-6.381,1.231-8.532,3.691C439.618,40.275,438.543,43.359,438.543,47.069z"/>
		<linearGradient id="SVGID_10_" gradientUnits="userSpaceOnUse" x1="476.1342" y1="57.1771" x2="511.0783" y2="57.1771">
			<stop  offset="0" style="stop-color:#4DA5DC"/>
			<stop  offset="1" style="stop-color:#0BBBBD"/>
		</linearGradient>
		<path fill="url(#SVGID_10_)" d="M482.365,62.39h-0.148v22.961h-6.083V29.895h6.083v6.677h0.148
			c2.992-5.045,7.37-7.569,13.131-7.569c4.897,0,8.719,1.701,11.464,5.101c2.745,3.4,4.118,7.957,4.118,13.669
			c0,6.357-1.547,11.445-4.637,15.265c-3.093,3.82-7.322,5.731-12.687,5.731C488.833,68.769,485.037,66.643,482.365,62.39z
			 M482.217,47.069v5.306c0,3.14,1.021,5.804,3.061,7.992c2.04,2.19,4.629,3.284,7.771,3.284c3.683,0,6.57-1.411,8.661-4.228
			c2.089-2.82,3.134-6.739,3.134-11.76c0-4.228-0.976-7.543-2.93-9.943c-1.954-2.398-4.599-3.597-7.938-3.597
			c-3.537,0-6.381,1.231-8.532,3.691C483.293,40.275,482.217,43.359,482.217,47.069z"/>
		<g>
			<g>
				<path fill="#FFFFFF" d="M1.882,46.302c0.171,0.48,0.346,0.961,0.529,1.441c6.47,17.035,20.985,33.619,44.879,33.619
					c20.292,0.002,32.461-10.834,40.166-25.415l0.224,3.744c-1.579,7.531,1.555,12.8,4.167,15.725
					c0.857,0.958,1.656,1.663,2.219,2.112c0,0,0.601,0.582,1.72,0.592c11.317,0.066,5.169-12.049,5.169-12.049
					c-4.099-11.429,2.09-18.688,2.09-18.688c19.173-36.864,8.282-43.757,3.09-45.25c-2.566-0.737-4.277,0.386-4.277,0.386
					c-11.08,4.956-14.245,24.439-15.1,32.779l-0.235-0.108l0.073-0.011C78.828,22.05,65.651,11.242,46.364,11.242
					C21.796,11.242,9.132,27.116,1.882,46.302"/>
				<linearGradient id="SVGID_11_" gradientUnits="userSpaceOnUse" x1="57.9108" y1="2.088200e-009" x2="57.9108" y2="83.2431">
					<stop  offset="0" style="stop-color:#4DA5DC"/>
					<stop  offset="1" style="stop-color:#0BBBBD"/>
				</linearGradient>
				<path fill="url(#SVGID_11_)" d="M47.298,83.243h-0.002l0,0l0,0c-20.923,0-38.361-13.021-46.643-34.832l-0.544-1.478
					c-0.149-0.421-0.145-0.88,0.013-1.298C9.345,21.226,24.471,9.36,46.364,9.36c15.929,0,29.672,7.312,39.164,20.71
					c1.638-10.642,5.667-24.844,15.561-29.27c-0.024-0.013,1.279-0.8,3.312-0.8c0.748,0,1.505,0.108,2.253,0.324
					c3.636,1.046,6.341,3.421,7.823,6.871c3.479,8.099,0.193,21.912-9.764,41.057c-0.064,0.125-0.145,0.244-0.237,0.351
					c-0.215,0.259-5.404,6.645-1.75,16.831c0.268,0.496,3.366,6.873,0.724,11.174c-1.382,2.252-3.93,3.393-7.573,3.393
					c-1.89-0.015-2.932-0.937-3.123-1.123c-0.443-0.342-1.34-1.123-2.31-2.208c-2.559-2.864-5.273-7.396-5.068-13.611
					C76.229,76.461,63.447,83.243,47.298,83.243z M3.892,46.314l0.278,0.755c3.704,9.747,15.311,32.409,43.121,32.409h0.006
					c17.223,0,29.816-7.985,38.497-24.412c0.393-0.75,1.232-1.132,2.062-0.961c0.823,0.178,1.43,0.884,1.48,1.728l0.224,3.744
					c0.011,0.167-0.002,0.335-0.037,0.498c-1.39,6.634,1.261,11.321,3.729,14.085c0.796,0.89,1.52,1.52,1.987,1.893
					c0.077,0.064,0.243,0.18,0.562,0.182c0.002,0,0.002,0,0.002,0c2.32,0,3.786-0.537,4.439-1.594
					c1.312-2.132-0.3-6.397-0.967-7.724c-4.183-11.626,1.169-19.267,2.185-20.57c11.637-22.425,11.624-32.861,9.558-37.668
					c-1.035-2.413-2.853-4.007-5.404-4.74c-1.393-0.399-2.726,0.151-2.759,0.173c-10.438,4.689-13.418,23.5-14.225,31.374
					c-0.063,0.605-0.412,1.143-0.941,1.443c-0.526,0.305-1.165,0.331-1.72,0.075c-0.397-0.184-0.739-0.507-0.956-0.891l-0.037,0.02
					c-5.086-8.593-16.864-23.011-38.613-23.011C26.415,13.124,12.516,23.981,3.892,46.314z"/>
			</g>
			<path fill="#50BAEA" d="M93.468,51.912c0,0,3.016-2.583,0.504-9.819l-1.268,0.54C92.704,42.633,95.397,47.563,93.468,51.912z"/>
			<polyline fill="#32B24A" points="93.972,42.093 90.998,37.348 88.989,37.343 92.704,42.633 			"/>
			<polyline fill="#2C58A6" points="93.035,28.21 91.287,27.803 88.989,37.343 90.937,37.348 			"/>
			<path fill="#F78E20" d="M93.035,28.21c0,0,2.172-7.378,2.83-7.907l-1.893-0.481l-2.686,7.983"/>
			<path fill="#EB2227" d="M99.161,11.349l1.257,1.66c0,0-4.457,5.795-4.553,7.294l-1.893-0.481
				C93.972,19.821,97.746,12.014,99.161,11.349z"/>
			<path fill="#EB2227" d="M107.216,8.926c0,0-3.983-2.145-8.286,2.673l1.279,1.651C100.209,13.25,103.664,9.16,107.216,8.926z"/>
			<path fill="#AA469A" d="M31.573,13.306c0,0,1.373,2.281,1.607,2.561c0.232,0.281-14.146,8.654-14.146,8.654l-1.511-2.579
				C17.523,21.942,24.836,15.178,31.573,13.306z"/>
			<path fill="#BF6428" d="M33.179,15.867c0,0,2.638,3.264,4.031,3.702l-9.876,13.609c0,0-6.097-4.667-8.3-8.657L33.179,15.867z"/>
			<path fill="#50BAEA" d="M43.87,21.942c0,0-4.338-0.562-6.659-2.373l-9.876,13.609c0,0,7.606,5.035,13.172,5.487L43.87,21.942z"/>
			<path fill="#32B24A" d="M50.376,21.346l4.222,16.578c0,0-6.974,2.256-14.092,0.741l3.363-16.723
				C43.87,21.942,47.902,22.403,50.376,21.346z"/>
			<path fill="#2C58A6" d="M54.598,19.308c0,0-2.72,1.653-4.222,2.038l4.222,16.578c0,0,6.896-2,9.902-4.746L54.598,19.308z"/>
			<path fill="#F78E20" d="M58.229,15.867l13.357,10.374c0,0-4.356,5.571-7.086,6.937l-9.902-13.87
				C54.598,19.308,57.424,17.155,58.229,15.867z"/>
			<path fill="#EB2227" d="M59.837,13.294l-1.608,2.573l13.357,10.374l3.018-4.895C74.604,21.346,67.649,15.023,59.837,13.294z"/>
			<path fill="none" stroke="#231F20" stroke-miterlimit="10" d="M95.865,20.302"/>
			<path fill="none" stroke="#231F20" stroke-miterlimit="10" d="M93.035,28.21"/>
			<path fill="none" stroke="#231F20" stroke-miterlimit="10" d="M91.287,23.633"/>
			<path fill="none" stroke="#231F20" stroke-miterlimit="10" d="M90.998,33.178"/>
			<path fill="none" stroke="#231F20" stroke-miterlimit="10" d="M88.989,33.172"/>
			<path fill="none" stroke="#231F20" stroke-miterlimit="10" d="M93.972,42.093"/>
			<linearGradient id="SVGID_12_" gradientUnits="userSpaceOnUse" x1="57.9108" y1="2.088200e-009" x2="57.9108" y2="83.2431">
				<stop  offset="0" style="stop-color:#4DA5DC"/>
				<stop  offset="1" style="stop-color:#0BBBBD"/>
			</linearGradient>
			<path fill="url(#SVGID_12_)" d="M47.298,83.243h-0.002l0,0l0,0c-20.923,0-38.361-13.021-46.643-34.832l-0.544-1.478
				c-0.149-0.421-0.145-0.88,0.013-1.298C9.345,21.226,24.471,9.36,46.364,9.36c15.929,0,29.672,7.312,39.164,20.71
				c1.638-10.642,5.667-24.844,15.561-29.27c-0.024-0.013,1.279-0.8,3.312-0.8c0.748,0,1.505,0.108,2.253,0.324
				c3.636,1.046,6.341,3.421,7.823,6.871c3.479,8.099,0.193,21.912-9.764,41.057c-0.064,0.125-0.145,0.244-0.237,0.351
				c-0.215,0.259-5.404,6.645-1.75,16.831c0.268,0.496,3.366,6.873,0.724,11.174c-1.382,2.252-3.93,3.393-7.573,3.393
				c-1.89-0.015-2.932-0.937-3.123-1.123c-0.443-0.342-1.34-1.123-2.31-2.208c-2.559-2.864-5.273-7.396-5.068-13.611
				C76.229,76.461,63.447,83.243,47.298,83.243z M3.892,46.314l0.278,0.755c3.704,9.747,15.311,32.409,43.121,32.409h0.006
				c17.223,0,29.816-7.985,38.497-24.412c0.393-0.75,1.232-1.132,2.062-0.961c0.823,0.178,1.43,0.884,1.48,1.728l0.224,3.744
				c0.011,0.167-0.002,0.335-0.037,0.498c-1.39,6.634,1.261,11.321,3.729,14.085c0.796,0.89,1.52,1.52,1.987,1.893
				c0.077,0.064,0.243,0.18,0.562,0.182c0.002,0,0.002,0,0.002,0c2.32,0,3.786-0.537,4.439-1.594c1.312-2.132-0.3-6.397-0.967-7.724
				c-4.183-11.626,1.169-19.267,2.185-20.57c11.637-22.425,11.624-32.861,9.558-37.668c-1.035-2.413-2.853-4.007-5.404-4.74
				c-1.393-0.399-2.726,0.151-2.759,0.173c-10.438,4.689-13.418,23.5-14.225,31.374c-0.063,0.605-0.412,1.143-0.941,1.443
				c-0.526,0.305-1.165,0.331-1.72,0.075c-0.397-0.184-0.739-0.507-0.956-0.891l-0.037,0.02
				c-5.086-8.593-16.864-23.011-38.613-23.011C26.415,13.124,12.516,23.981,3.892,46.314z"/>
			<path opacity="0.4" fill="#FFFFFF" d="M82.21,26.254c0,0-11.005-16.218-34.174-16.565c0,0-18.822-2.375-34.054,13.089
				C13.983,22.778,45.952,34.593,82.21,26.254z"/>
			<path opacity="0.4" fill="#FFFFFF" d="M115.454,12.7c0,0,0.173-3.476-2.139-7.066c-1.926-2.98-5.421-5.867-10.141-5.213
				c0,0-11.929,1.564-16.447,24.906C86.726,25.328,105.84,20.925,115.454,12.7z"/>
		</g>
	</g>
	<g>
		<path fill="#4FCADA" d="M50.92,97.49c0.043,0.389,0,0.712-0.13,0.971c-0.13,0.259-0.323,0.454-0.582,0.582
			c-0.259,0.13-0.54,0.162-0.841,0.097c-0.303-0.064-0.582-0.269-0.841-0.615c-0.217-0.603-0.583-0.959-1.101-1.068
			c-0.518-0.108-1.068-0.086-1.65,0.065c-0.583,0.151-1.155,0.378-1.715,0.679c-0.562,0.303-1.014,0.582-1.359,0.841
			c-1.338,0.907-2.298,2.061-2.88,3.463c-0.583,1.403-0.637,2.903-0.162,4.498c0.431,1.425,1.144,2.676,2.136,3.755
			s2.06,2.103,3.204,3.074c1.143,0.971,2.243,1.952,3.301,2.945c1.057,0.993,1.887,2.158,2.491,3.496
			c0.906,2.115,1.37,3.97,1.392,5.567c0.022,1.597-0.303,2.956-0.971,4.077c-0.669,1.122-1.598,1.996-2.784,2.622
			c-1.186,0.626-2.535,1.014-4.045,1.165s-3.117,0.075-4.821-0.226c-1.704-0.302-3.355-0.841-4.952-1.618
			c-0.648-0.431-0.852-0.948-0.615-1.553c0.237-0.604,0.744-0.885,1.521-0.841c1.294,0.604,2.836,1.079,4.628,1.424
			c1.79,0.346,3.462,0.389,5.016,0.13c1.553-0.259,2.794-0.927,3.722-2.006c0.927-1.079,1.154-2.761,0.679-5.049
			c-0.345-1.597-1.143-3.053-2.394-4.37c-1.252-1.316-2.579-2.599-3.981-3.851s-2.708-2.524-3.916-3.819
			c-1.208-1.294-1.92-2.718-2.135-4.272c-0.087-0.604-0.151-1.175-0.195-1.715s-0.108-1.089-0.194-1.651
			c-0.087-0.949,0.129-1.952,0.647-3.009c0.518-1.057,1.23-2.028,2.136-2.912c0.906-0.885,1.92-1.651,3.042-2.299
			c1.122-0.647,2.222-1.057,3.301-1.23c1.079-0.172,2.071-0.064,2.978,0.324C49.754,95.549,50.445,96.326,50.92,97.49z"/>
		<path fill="#4FCADA" d="M65.418,125.71c-0.475,0.39-1.058,0.638-1.748,0.745c-0.691,0.108-1.414,0.161-2.169,0.161
			c-0.755,0-1.52-0.01-2.298-0.032c-0.777-0.022-1.511,0.033-2.201,0.161c-0.345,0.259-0.69,0.389-1.035,0.389h-0.195
			c0.303,1.122,0.863,2.06,1.684,2.816c0.82,0.755,1.855,1.133,3.106,1.133c0.863,0,1.672-0.119,2.427-0.356
			c0.755-0.237,1.5-0.529,2.233-0.874c0.086,0,0.194-0.064,0.324-0.195c0.172-0.388,0.409-0.69,0.712-0.906
			c0.129-0.086,0.258-0.14,0.388-0.162c0.13-0.022,0.237-0.053,0.324-0.097c0.345,0.216,0.657,0.421,0.938,0.615
			c0.281,0.194,0.571,0.399,0.874,0.615c-0.087,0.734-0.583,1.392-1.489,1.974c-0.906,0.582-1.931,1.046-3.075,1.391
			c-1.144,0.346-2.288,0.55-3.43,0.615c-1.144,0.064-1.996-0.054-2.557-0.356c-1.208-0.647-2.19-1.338-2.945-2.071
			c-0.755-0.734-1.316-1.531-1.683-2.394c-0.366-0.863-0.57-1.812-0.615-2.848c-0.043-1.036,0.043-2.222,0.259-3.56
			c0.129-0.949,0.431-1.726,0.906-2.33c0.475-0.604,1.047-1.057,1.715-1.359c0.668-0.302,1.402-0.474,2.201-0.517
			c0.799-0.043,1.586,0,2.363,0.129c0.734,0.087,1.369,0.41,1.909,0.971c0.54,0.562,1.111,1.079,1.716,1.553
			c0.302,0.216,0.625,0.53,0.971,0.939c0.345,0.41,0.615,0.842,0.809,1.295c0.194,0.453,0.281,0.907,0.259,1.359
			C66.076,124.967,65.849,125.366,65.418,125.71z M59.658,120.92c-0.648-0.302-1.209-0.398-1.684-0.291
			c-0.475,0.109-0.874,0.357-1.197,0.744c-0.324,0.389-0.583,0.852-0.777,1.392c-0.194,0.54-0.334,1.089-0.42,1.65
			c0.604-0.216,1.23-0.344,1.877-0.388c0.647-0.043,1.294-0.065,1.942-0.065c0.647,0,1.305,0,1.974,0
			c0.668,0,1.305-0.064,1.909-0.195c-0.173-0.259-0.41-0.528-0.712-0.809c-0.303-0.281-0.626-0.55-0.971-0.809
			c-0.346-0.259-0.691-0.496-1.036-0.712C60.218,121.224,59.917,121.051,59.658,120.92z"/>
		<path fill="#4FCADA" d="M64.169,116.282c-0.389-0.13-0.68-0.313-0.875-0.551c-0.193-0.237-0.291-0.497-0.291-0.778
			s0.098-0.541,0.291-0.779c0.195-0.237,0.486-0.399,0.875-0.486c1.122,0,2.255-0.043,3.398-0.13
			c1.144-0.086,2.276-0.194,3.397-0.324l0.259-8.149c0.043-0.431,0.184-0.777,0.422-1.036c0.237-0.259,0.508-0.398,0.811-0.42
			c0.303-0.022,0.583,0.076,0.842,0.292c0.259,0.216,0.432,0.561,0.519,1.035l-0.259,8.025l3.883-0.194
			c0.475,0.043,0.821,0.195,1.036,0.454c0.216,0.259,0.323,0.54,0.323,0.842s-0.119,0.584-0.356,0.843
			c-0.237,0.26-0.572,0.411-1.003,0.454l-4.01,0.195c-0.087,2.93-0.076,5.831,0.032,8.7c0.108,2.87,0.399,5.751,0.875,8.641
			c0.043,0.475-0.034,0.841-0.227,1.1c-0.194,0.259-0.431,0.42-0.712,0.485c-0.281,0.064-0.573,0.01-0.876-0.162
			c-0.303-0.173-0.541-0.454-0.714-0.841c-0.477-2.978-0.768-5.923-0.876-8.835c-0.109-2.912-0.12-5.857-0.033-8.835
			c-1.122,0.13-2.244,0.238-3.366,0.324C66.414,116.239,65.292,116.282,64.169,116.282z"/>
		<path fill="#4FCADA" d="M89.363,120.276c0.043-0.388,0.162-0.712,0.356-0.971c0.194-0.259,0.421-0.42,0.68-0.485
			c0.259-0.065,0.528-0.033,0.809,0.097c0.281,0.13,0.507,0.389,0.68,0.777c0.302,1.639,0.829,3.279,1.585,4.918
			c0.755,1.64,1.672,3.085,2.751,4.337c0.303-0.172,0.572-0.485,0.81-0.938c0.237-0.453,0.453-0.982,0.647-1.586
			s0.356-1.219,0.485-1.845s0.237-1.176,0.324-1.651c-0.044-0.993-0.054-2.06-0.033-3.204c0.022-1.143,0.205-1.973,0.551-2.491
			l1.488-0.583c0.734,0.259,1.132,0.724,1.197,1.392c0.065,0.669-0.01,1.306-0.225,1.909c-0.044,0.39-0.076,0.789-0.098,1.198
			c-0.022,0.41-0.075,0.81-0.161,1.197c-0.043,1.166-0.098,2.331-0.162,3.496c-0.065,1.165-0.14,2.308-0.226,3.429
			c-0.131,1.726-0.282,3.248-0.454,4.563c-0.172,1.316-0.334,2.535-0.485,3.658c-0.151,1.121-0.281,2.211-0.389,3.268
			c-0.108,1.057-0.161,2.19-0.161,3.398c-0.087,0.388-0.238,0.69-0.454,0.907c-0.216,0.215-0.464,0.323-0.744,0.323
			s-0.55-0.098-0.809-0.291c-0.259-0.195-0.454-0.465-0.582-0.81c0-1.425,0.108-2.838,0.323-4.239
			c0.216-1.403,0.41-2.817,0.583-4.24c0.086-0.863,0.161-1.704,0.226-2.524c0.064-0.82,0.139-1.661,0.226-2.525
			c-0.863,0.821-1.801,0.972-2.816,0.454c-1.014-0.518-1.953-1.532-2.816-3.043c-0.346-0.647-0.637-1.219-0.874-1.715
			c-0.237-0.496-0.507-1.068-0.809-1.715c-0.346-0.734-0.637-1.467-0.874-2.201S89.493,121.053,89.363,120.276z"/>
		<path fill="#4FCADA" d="M111.435,120.467c0.043,0.043,0.086,0.065,0.13,0.065c1.121,0.087,2.081,0.551,2.88,1.392
			c0.798,0.841,1.369,1.845,1.715,3.009c0.345,1.165,0.442,2.373,0.292,3.624c-0.151,1.252-0.615,2.331-1.392,3.237
			c-0.389,0.432-0.874,0.745-1.456,0.939c-0.583,0.194-1.187,0.323-1.813,0.388c-0.626,0.065-1.252,0.076-1.876,0.033
			c-0.626-0.043-1.176-0.086-1.651-0.13c-1.511-0.086-2.664-0.539-3.463-1.359c-0.799-0.82-1.294-1.801-1.489-2.945
			c-0.193-1.143-0.118-2.33,0.227-3.56c0.345-1.23,0.885-2.298,1.618-3.204c0.734-0.906,1.639-1.531,2.718-1.876
			S110.14,119.864,111.435,120.467z M110.399,123.25c-0.432,0.217-0.799,0.249-1.1,0.098c-0.303-0.15-0.518-0.378-0.648-0.68
			c-0.69,0.173-1.262,0.572-1.715,1.198s-0.777,1.316-0.971,2.071c-0.194,0.755-0.237,1.489-0.13,2.201s0.399,1.219,0.874,1.52
			c0.69,0.475,1.489,0.755,2.395,0.841c0.906,0.087,1.747,0.087,2.524,0c0.906-0.129,1.553-0.495,1.942-1.099
			c0.388-0.604,0.561-1.294,0.517-2.071c-0.044-0.777-0.237-1.543-0.582-2.299c-0.345-0.755-0.798-1.327-1.358-1.715
			c-0.087-0.086-0.259-0.172-0.518-0.259h-0.389C110.981,123.057,110.7,123.122,110.399,123.25z"/>
		<path fill="#4FCADA" d="M119.201,121.438c0.043-0.431,0.183-0.776,0.42-1.035c0.237-0.259,0.506-0.399,0.809-0.421
			s0.583,0.076,0.842,0.292c0.259,0.216,0.431,0.561,0.518,1.035c0.086,0.993,0.237,1.985,0.453,2.978s0.366,1.985,0.453,2.978
			c0.044,0.475,0.033,0.982-0.033,1.521s-0.097,1.068-0.097,1.585c1.38-1.208,2.394-2.566,3.042-4.077s1.295-3.085,1.943-4.726
			c0.259-0.086,0.528-0.15,0.809-0.194c0.281-0.043,0.571-0.108,0.874-0.195l-0.064-0.13c0.042,0,0.074,0.011,0.096,0.033
			c0.022,0.022,0.054,0.033,0.098,0.033c-0.043,0-0.087,0.022-0.13,0.064l0.907,1.166c0.042,0.648,0.053,1.328,0.032,2.039
			c-0.022,0.712,0.011,1.424,0.097,2.135c0.086,0.712,0.237,1.381,0.453,2.007c0.216,0.626,0.562,1.197,1.036,1.714
			c0.345,0.734,0.281,1.317-0.194,1.748c-0.475,0.432-1.058,0.432-1.748,0c-0.604-0.647-1.057-1.347-1.359-2.103
			c-0.303-0.755-0.518-1.564-0.647-2.428c-0.432,0.864-0.917,1.716-1.457,2.558c-0.54,0.841-1.1,1.553-1.683,2.135
			c-0.583,0.583-1.176,0.982-1.78,1.197c-0.604,0.216-1.186,0.13-1.747-0.259c-0.475-0.302-0.788-0.69-0.939-1.165
			c-0.151-0.475-0.226-0.971-0.226-1.489c0-0.518,0.032-1.046,0.097-1.586c0.065-0.54,0.076-1.025,0.033-1.456
			c-0.087-0.993-0.237-1.985-0.453-2.978C119.438,123.423,119.287,122.431,119.201,121.438z"/>
		<path fill="#4FCADA" d="M134.475,119.448c-0.13-0.389-0.151-0.734-0.064-1.036c0.086-0.302,0.248-0.517,0.485-0.647
			c0.237-0.13,0.517-0.184,0.841-0.162c0.323,0.022,0.636,0.161,0.938,0.42c0.172,0.303,0.334,0.583,0.485,0.842
			c0.15,0.259,0.291,0.539,0.421,0.841c0.216-0.431,0.539-0.863,0.971-1.295c0.949-0.906,1.876-1.553,2.783-1.942
			c0.906-0.388,1.747-0.517,2.524-0.388c0.777,0.13,1.434,0.54,1.974,1.23c0.54,0.69,0.939,1.683,1.198,2.977
			c0.043,0.475-0.034,0.841-0.227,1.1c-0.194,0.259-0.431,0.421-0.712,0.485c-0.281,0.065-0.571,0.011-0.874-0.162
			c-0.303-0.172-0.54-0.453-0.712-0.841c-0.303-1.38-0.777-2.168-1.424-2.362c-0.648-0.194-1.532,0.378-2.653,1.714
			c-0.476,0.605-0.875,1.295-1.198,2.072c-0.324,0.777-0.593,1.597-0.809,2.459c0.043,0.734,0.053,1.467,0.032,2.201
			c-0.022,0.734,0.011,1.467,0.098,2.201c0.086,0.649,0.161,1.263,0.226,1.846c0.064,0.582,0.053,1.219-0.033,1.909
			c-0.431,0-0.863,0.011-1.294,0.032c-0.432,0.022-0.864,0.053-1.295,0.095c-0.303-0.991-0.475-2.209-0.518-3.654
			c-0.044-1.445,0.043-2.923,0.26-4.434c0-0.993-0.098-1.942-0.292-2.848C135.413,121.196,135.035,120.311,134.475,119.448z"/>
		<path fill="#4FCADA" d="M161.819,101.05c0.044-0.431,0.184-0.777,0.421-1.036c0.237-0.259,0.508-0.398,0.811-0.42
			c0.303-0.022,0.584,0.075,0.843,0.291s0.432,0.562,0.519,1.036c0.042,2.589,0.073,4.854,0.095,6.796
			c0.021,1.942,0.032,3.711,0.032,5.308s0.01,3.118,0.032,4.563c0.021,1.445,0.032,2.967,0.032,4.563s0.01,3.365,0.032,5.307
			c0.021,1.942,0.052,4.229,0.095,6.861c-0.087,0.388-0.238,0.69-0.454,0.907c-0.216,0.215-0.466,0.323-0.746,0.323
			c-0.281,0-0.552-0.098-0.811-0.291c-0.259-0.195-0.454-0.465-0.583-0.81c-0.043-2.632-0.074-4.919-0.095-6.861
			c-0.022-1.942-0.032-3.71-0.032-5.307s-0.011-3.107-0.032-4.531c-0.022-1.424-0.032-2.934-0.032-4.531s-0.011-3.366-0.032-5.308
			C161.892,105.97,161.86,103.682,161.819,101.05z"/>
		<path fill="#4FCADA" d="M168.519,122.358c0.043-0.431,0.183-0.777,0.42-1.036c0.237-0.259,0.506-0.398,0.809-0.42
			c0.303-0.022,0.583,0.076,0.842,0.292s0.431,0.561,0.518,1.035c0.258,1.64,0.441,3.291,0.55,4.952
			c0.108,1.661,0.248,3.312,0.421,4.951c0.129,0.303,0.172,0.604,0.13,0.907c0,0.043-0.011,0.085-0.033,0.127
			c-0.022,0.043-0.033,0.085-0.033,0.127l-2.524-0.253c-0.259-1.812-0.443-3.592-0.551-5.339
			C168.961,125.95,168.778,124.171,168.519,122.358z M170.266,112.981c0.389,0.217,0.648,0.476,0.777,0.777
			c0.13,0.303,0.151,0.604,0.065,0.907c-0.087,0.303-0.292,0.529-0.615,0.679c-0.324,0.151-0.702,0.162-1.133,0.033h-0.065
			l-0.517-0.13c0.043-0.431,0.064-0.863,0.064-1.294s0-0.861,0-1.288h0.065c0.172,0,0.344,0.043,0.517,0.127
			C169.64,112.791,169.921,112.854,170.266,112.981z"/>
		<path fill="#4FCADA" d="M170.355,110.338c-0.194-0.237-0.292-0.495-0.292-0.776c0-0.281,0.098-0.54,0.292-0.777
			c0.195-0.237,0.486-0.399,0.874-0.486c0.69,0.044,1.294,0.087,1.812,0.131c0.518,0.043,1.014,0.108,1.489,0.194
			c-0.087-2.157-0.109-4.315-0.065-6.472c0.043-2.157,0.237-3.992,0.582-5.503c0.172-0.647,0.722-1.132,1.649-1.456
			c0.926-0.323,1.94-0.485,3.04-0.485c1.1,0,2.126,0.162,3.075,0.485c0.949,0.324,1.532,0.831,1.748,1.521
			c0.043,0.432-0.023,0.777-0.195,1.036c-0.172,0.259-0.388,0.431-0.647,0.517c-0.259,0.087-0.54,0.076-0.842-0.032
			c-0.303-0.108-0.539-0.312-0.711-0.615c-0.39-0.216-0.811-0.313-1.263-0.292s-0.852,0.033-1.196,0.033
			c-0.518,0-0.907-0.011-1.166-0.033c-0.259-0.022-0.604,0.076-1.035,0.292c-0.169,1.856-0.275,3.7-0.317,5.534
			s-0.043,3.679,0.001,5.533c0.471-0.086,0.975-0.194,1.515-0.323c0.54-0.129,1.155-0.366,1.846-0.712
			c0.388-0.086,0.722-0.064,1.002,0.065c0.281,0.13,0.485,0.312,0.615,0.55c0.13,0.237,0.162,0.507,0.098,0.809
			c-0.065,0.303-0.248,0.582-0.551,0.841c-1.467,0.648-2.955,1.014-4.462,1.1l0.19,4.467c0.044,1.511,0.065,3.064,0.065,4.66
			s0.043,3.182,0.129,4.757c0.086,1.576,0.226,3.151,0.421,4.726c0.194,1.575,0.529,3.095,1.003,4.562
			c0.043,0.475-0.034,0.841-0.227,1.1c-0.194,0.259-0.431,0.42-0.712,0.486c-0.281,0.064-0.571,0.01-0.874-0.162
			c-0.303-0.173-0.541-0.454-0.713-0.842c-0.477-1.51-0.823-3.063-1.038-4.659c-0.217-1.597-0.368-3.204-0.454-4.822
			c-0.087-1.617-0.13-3.236-0.13-4.854c0-1.618-0.022-3.204-0.065-4.758l-0.19-4.595l-3.427-0.195
			C170.841,110.759,170.549,110.576,170.355,110.338z"/>
		<path fill="#4FCADA" d="M193.049,125.71c-0.475,0.39-1.058,0.638-1.748,0.745c-0.691,0.108-1.414,0.161-2.169,0.161
			c-0.755,0-1.52-0.01-2.298-0.032c-0.777-0.022-1.511,0.033-2.201,0.161c-0.345,0.259-0.69,0.389-1.035,0.389h-0.195
			c0.303,1.122,0.863,2.06,1.684,2.816c0.82,0.755,1.855,1.133,3.106,1.133c0.863,0,1.672-0.119,2.427-0.356
			c0.755-0.237,1.5-0.529,2.233-0.874c0.086,0,0.194-0.064,0.324-0.195c0.172-0.388,0.409-0.69,0.712-0.906
			c0.129-0.086,0.258-0.14,0.388-0.162c0.13-0.022,0.237-0.053,0.324-0.097c0.345,0.216,0.657,0.421,0.938,0.615
			s0.571,0.399,0.874,0.615c-0.087,0.734-0.583,1.392-1.489,1.974s-1.931,1.046-3.075,1.391c-1.144,0.346-2.288,0.55-3.43,0.615
			c-1.144,0.064-1.996-0.054-2.557-0.356c-1.208-0.647-2.19-1.338-2.945-2.071c-0.755-0.734-1.316-1.531-1.683-2.394
			c-0.366-0.863-0.57-1.812-0.615-2.848c-0.043-1.036,0.043-2.222,0.259-3.56c0.129-0.949,0.431-1.726,0.906-2.33
			c0.475-0.604,1.047-1.057,1.715-1.359c0.668-0.302,1.402-0.474,2.201-0.517c0.799-0.043,1.586,0,2.363,0.129
			c0.734,0.087,1.369,0.41,1.909,0.971c0.54,0.562,1.111,1.079,1.716,1.553c0.302,0.216,0.625,0.53,0.971,0.939
			c0.345,0.41,0.615,0.842,0.809,1.295c0.194,0.453,0.281,0.907,0.259,1.359C193.707,124.967,193.48,125.366,193.049,125.71z
			 M187.289,120.92c-0.648-0.302-1.209-0.398-1.684-0.291c-0.475,0.109-0.874,0.357-1.197,0.744
			c-0.324,0.389-0.583,0.852-0.777,1.392c-0.194,0.54-0.334,1.089-0.42,1.65c0.604-0.216,1.23-0.344,1.877-0.388
			c0.647-0.043,1.294-0.065,1.942-0.065c0.647,0,1.305,0,1.974,0c0.668,0,1.305-0.064,1.909-0.195
			c-0.173-0.259-0.41-0.528-0.712-0.809c-0.303-0.281-0.626-0.55-0.971-0.809c-0.346-0.259-0.691-0.496-1.036-0.712
			C187.849,121.224,187.548,121.051,187.289,120.92z"/>
		<path fill="#4FCADA" d="M198.225,94.189c0.044-0.389,0.162-0.712,0.356-0.971c0.194-0.259,0.421-0.42,0.68-0.485
			s0.528-0.033,0.809,0.097c0.281,0.13,0.507,0.389,0.68,0.776c0.172,0.475,0.28,1.058,0.323,1.748
			c0.043,0.691,0.065,1.371,0.065,2.039s-0.022,1.316-0.065,1.942c-0.044,0.626-0.064,1.111-0.064,1.456
			c-0.087,0.389-0.238,0.691-0.454,0.907s-0.464,0.323-0.744,0.323s-0.55-0.097-0.809-0.292c-0.259-0.194-0.454-0.464-0.582-0.809
			c0-0.13,0.01-0.475,0.032-1.036c0.022-0.561,0.044-1.197,0.065-1.909c0.022-0.712,0.011-1.425-0.033-2.136
			S198.355,94.578,198.225,94.189z"/>
		<path fill="#4FCADA" d="M216.218,124.157c-0.821,0.044-1.316-0.28-1.488-0.971c-0.691-0.216-1.532-0.247-2.525-0.097
			c-0.993,0.151-1.834,0.356-2.524,0.615c0.949,0.389,2.038,0.723,3.268,1.003c1.23,0.281,2.405,0.615,3.527,1.003
			c1.122,0.389,2.104,0.885,2.945,1.489c0.841,0.604,1.37,1.402,1.586,2.394l-0.517,1.489c-0.864,0.562-2.137,1.036-3.82,1.424
			c-1.683,0.389-3.398,0.593-5.146,0.615c-1.748,0.022-3.354-0.183-4.821-0.615c-1.467-0.431-2.395-1.208-2.783-2.33l0.389-1.166
			l0.776-0.776c0.303-0.172,0.604-0.248,0.907-0.226c0.302,0.022,0.561,0.119,0.776,0.291c0.216,0.173,0.356,0.41,0.421,0.713
			c0.064,0.303,0.01,0.604-0.162,0.906c0.734,0.259,1.575,0.443,2.524,0.551s1.921,0.14,2.913,0.097
			c0.993-0.043,1.974-0.151,2.945-0.323c0.971-0.172,1.845-0.431,2.622-0.777c-0.518-0.561-1.392-1.013-2.622-1.359
			c-1.23-0.345-2.492-0.69-3.786-1.035c-1.295-0.345-2.481-0.734-3.56-1.166c-1.08-0.431-1.705-1.014-1.877-1.748
			c-0.13-0.518,0-1.014,0.389-1.489c0.388-0.475,0.938-0.873,1.65-1.197c0.712-0.323,1.521-0.571,2.428-0.744
			c0.906-0.172,1.801-0.259,2.686-0.259c0.884,0,1.693,0.119,2.427,0.356c0.734,0.237,1.294,0.594,1.683,1.069v1.617
			C217.146,123.812,216.736,124.028,216.218,124.157z"/>
		<path fill="#4FCADA" d="M236.801,119.626c0.345,0,0.679-0.01,1.003-0.032c0.323-0.022,0.636-0.033,0.938-0.033
			c0,0.345,0,0.69,0,1.035c0,0.346,0.022,0.691,0.065,1.036c0-0.086,0.01-0.14,0.032-0.162c0.022-0.022,0.033-0.075,0.033-0.162
			c0.172-0.475,0.398-0.981,0.679-1.52c0.281-0.54,0.615-1.014,1.003-1.425c0.389-0.409,0.83-0.679,1.327-0.809
			c0.496-0.129,1.068-0.043,1.716,0.259c0.561,0.259,1.024,0.821,1.391,1.684c0.367,0.863,0.68,1.876,0.939,3.041
			c0.561-1.337,1.316-2.415,2.265-3.236l1.618-0.13c1.035,0.734,1.865,1.684,2.491,2.848s1.111,2.416,1.456,3.754
			c0.345,1.339,0.593,2.698,0.744,4.078c0.151,1.381,0.27,2.653,0.357,3.818c-0.087,0.389-0.238,0.691-0.454,0.907
			s-0.464,0.323-0.744,0.323s-0.55-0.098-0.809-0.291c-0.259-0.195-0.454-0.465-0.582-0.81c-0.044-0.561-0.141-1.445-0.292-2.653
			c-0.151-1.208-0.356-2.448-0.615-3.721c-0.259-1.273-0.583-2.438-0.971-3.496c-0.389-1.057-0.82-1.736-1.294-2.039
			c-0.476,0.475-0.831,1.23-1.069,2.265c-0.237,1.036-0.41,2.147-0.518,3.334s-0.172,2.33-0.194,3.43
			c-0.022,1.1-0.033,1.952-0.033,2.557l-2.588,0.518v-0.389c-0.217-2.201-0.454-4.444-0.713-6.731
			c-0.259-2.287-0.776-4.487-1.553-6.602c-0.518,0.173-0.917,0.863-1.198,2.071c-0.281,1.208-0.485,2.557-0.615,4.045
			c-0.13,1.489-0.216,2.935-0.259,4.337s-0.064,2.362-0.064,2.88c-0.216,0-0.442,0-0.679,0c-0.237,0-0.485,0.021-0.744,0.064
			l-1.165,0.389v-0.323c-0.476-2.373-0.853-4.692-1.134-6.958c-0.281-2.266-0.42-4.628-0.42-7.087h0.259
			c0.086,0,0.15-0.011,0.194-0.033C236.649,119.637,236.714,119.626,236.801,119.626z"/>
		<path fill="#4FCADA" d="M265.021,120.467c0.043,0.043,0.086,0.065,0.13,0.065c1.121,0.087,2.081,0.551,2.88,1.392
			c0.798,0.841,1.369,1.845,1.715,3.009c0.345,1.165,0.442,2.373,0.292,3.624c-0.151,1.252-0.615,2.331-1.392,3.237
			c-0.389,0.432-0.874,0.745-1.456,0.939c-0.583,0.194-1.187,0.323-1.813,0.388c-0.626,0.065-1.252,0.076-1.876,0.033
			c-0.626-0.043-1.176-0.086-1.651-0.13c-1.511-0.086-2.664-0.539-3.463-1.359c-0.799-0.82-1.294-1.801-1.489-2.945
			c-0.193-1.143-0.118-2.33,0.227-3.56c0.345-1.23,0.885-2.298,1.618-3.204c0.734-0.906,1.639-1.531,2.718-1.876
			C262.538,119.735,263.725,119.864,265.021,120.467z M263.984,123.25c-0.432,0.217-0.799,0.249-1.1,0.098
			c-0.303-0.15-0.518-0.378-0.648-0.68c-0.69,0.173-1.262,0.572-1.715,1.198s-0.777,1.316-0.971,2.071
			c-0.194,0.755-0.237,1.489-0.13,2.201s0.399,1.219,0.874,1.52c0.69,0.475,1.489,0.755,2.395,0.841
			c0.906,0.087,1.747,0.087,2.524,0c0.906-0.129,1.553-0.495,1.942-1.099c0.388-0.604,0.561-1.294,0.517-2.071
			c-0.044-0.777-0.237-1.543-0.582-2.299c-0.345-0.755-0.798-1.327-1.358-1.715c-0.087-0.086-0.259-0.172-0.518-0.259h-0.389
			C264.567,123.057,264.286,123.122,263.984,123.25z"/>
		<path fill="#4FCADA" d="M273.628,119.626c0.345,0,0.679-0.01,1.003-0.032c0.323-0.022,0.636-0.033,0.938-0.033
			c0,0.345,0,0.69,0,1.035c0,0.346,0.022,0.691,0.065,1.036c0-0.086,0.01-0.14,0.032-0.162s0.033-0.075,0.033-0.162
			c0.172-0.475,0.398-0.981,0.679-1.52c0.281-0.54,0.615-1.014,1.003-1.425c0.389-0.409,0.83-0.679,1.327-0.809
			c0.496-0.129,1.068-0.043,1.716,0.259c0.561,0.259,1.024,0.821,1.391,1.684c0.367,0.863,0.68,1.876,0.939,3.041
			c0.561-1.337,1.316-2.415,2.265-3.236l1.618-0.13c1.035,0.734,1.866,1.684,2.491,2.848c0.626,1.165,1.111,2.416,1.456,3.754
			c0.345,1.339,0.593,2.698,0.744,4.078c0.151,1.381,0.27,2.653,0.357,3.818c-0.087,0.389-0.238,0.691-0.454,0.907
			s-0.464,0.323-0.744,0.323s-0.55-0.098-0.809-0.291c-0.259-0.195-0.454-0.465-0.582-0.81c-0.044-0.561-0.141-1.445-0.292-2.653
			c-0.151-1.208-0.356-2.448-0.615-3.721c-0.259-1.273-0.583-2.438-0.971-3.496c-0.389-1.057-0.82-1.736-1.294-2.039
			c-0.476,0.475-0.831,1.23-1.069,2.265c-0.237,1.036-0.41,2.147-0.518,3.334s-0.172,2.33-0.194,3.43
			c-0.022,1.1-0.033,1.952-0.033,2.557l-2.588,0.518v-0.389c-0.216-2.201-0.454-4.444-0.713-6.731
			c-0.259-2.287-0.776-4.487-1.553-6.602c-0.518,0.173-0.917,0.863-1.198,2.071s-0.485,2.557-0.615,4.045s-0.216,2.935-0.259,4.337
			c-0.044,1.402-0.064,2.362-0.064,2.88c-0.216,0-0.442,0-0.679,0s-0.485,0.021-0.744,0.064l-1.165,0.389v-0.323
			c-0.476-2.373-0.853-4.692-1.134-6.958c-0.281-2.266-0.42-4.628-0.42-7.087h0.259c0.086,0,0.15-0.011,0.194-0.033
			C273.477,119.637,273.541,119.626,273.628,119.626z"/>
		<path fill="#4FCADA" d="M306.12,125.71c-0.475,0.39-1.058,0.638-1.748,0.745c-0.691,0.108-1.414,0.161-2.169,0.161
			c-0.755,0-1.52-0.01-2.298-0.032c-0.777-0.022-1.511,0.033-2.201,0.161c-0.345,0.259-0.69,0.389-1.035,0.389h-0.195
			c0.303,1.122,0.863,2.06,1.684,2.816c0.82,0.755,1.855,1.133,3.106,1.133c0.863,0,1.672-0.119,2.427-0.356
			c0.755-0.237,1.5-0.529,2.233-0.874c0.086,0,0.194-0.064,0.324-0.195c0.172-0.388,0.409-0.69,0.712-0.906
			c0.129-0.086,0.258-0.14,0.388-0.162c0.13-0.022,0.237-0.053,0.324-0.097c0.345,0.216,0.657,0.421,0.938,0.615
			s0.571,0.399,0.874,0.615c-0.087,0.734-0.583,1.392-1.489,1.974c-0.906,0.582-1.931,1.046-3.075,1.391
			c-1.144,0.346-2.288,0.55-3.43,0.615c-1.144,0.064-1.996-0.054-2.557-0.356c-1.208-0.647-2.19-1.338-2.945-2.071
			c-0.755-0.734-1.316-1.531-1.683-2.394c-0.366-0.863-0.57-1.812-0.615-2.848c-0.043-1.036,0.044-2.222,0.259-3.56
			c0.129-0.949,0.431-1.726,0.906-2.33c0.475-0.604,1.047-1.057,1.715-1.359c0.668-0.302,1.402-0.474,2.201-0.517
			c0.799-0.043,1.586,0,2.363,0.129c0.734,0.087,1.369,0.41,1.909,0.971c0.54,0.562,1.111,1.079,1.716,1.553
			c0.302,0.216,0.625,0.53,0.971,0.939c0.345,0.41,0.615,0.842,0.809,1.295c0.194,0.453,0.281,0.907,0.259,1.359
			C306.777,124.967,306.551,125.366,306.12,125.71z M300.359,120.92c-0.648-0.302-1.209-0.398-1.684-0.291
			c-0.475,0.109-0.874,0.357-1.197,0.744c-0.324,0.389-0.583,0.852-0.777,1.392c-0.194,0.54-0.334,1.089-0.42,1.65
			c0.604-0.216,1.23-0.344,1.877-0.388c0.647-0.043,1.294-0.065,1.942-0.065c0.647,0,1.305,0,1.974,0
			c0.668,0,1.305-0.064,1.909-0.195c-0.173-0.259-0.41-0.528-0.712-0.809c-0.303-0.281-0.626-0.55-0.971-0.809
			c-0.346-0.259-0.691-0.496-1.036-0.712S300.618,121.051,300.359,120.92z"/>
		<path fill="#4FCADA" d="M313.432,128.951c-0.13-1.294-0.335-2.567-0.616-3.819c-0.281-1.252-0.723-2.416-1.326-3.495
			c-0.518-0.389-0.69-0.971-0.518-1.748l0.129-0.259l2.135-0.13c0.389,0.605,0.723,1.253,1.003,1.943
			c0.281,0.69,0.529,1.402,0.744,2.135c0.345-0.604,0.734-1.197,1.165-1.78c0.431-0.582,0.907-1.132,1.425-1.65
			c0.388-0.345,0.82-0.668,1.294-0.971c0.475-0.303,0.982-0.529,1.521-0.68c0.54-0.15,1.068-0.194,1.586-0.129
			c0.518,0.065,1.014,0.292,1.489,0.679c1.035,0.949,1.747,2.06,2.135,3.334c0.389,1.273,0.615,2.6,0.68,3.98
			c0.064,1.381,0.064,2.773,0,4.175c-0.065,1.403-0.011,2.73,0.162,3.981c0.129,0.258,0.172,0.538,0.129,0.841
			c-0.043,0.302-0.237,0.582-0.582,0.841l-0.064,0.064c-0.346-0.173-0.669-0.335-0.971-0.485c-0.303-0.151-0.626-0.292-0.971-0.42
			c-0.216-1.036-0.303-2.168-0.26-3.398c0.043-1.23,0.065-2.46,0.065-3.689c0-1.23-0.087-2.416-0.259-3.56
			c-0.172-1.143-0.539-2.125-1.1-2.945c-0.389-0.604-0.841-0.863-1.359-0.777c-0.518,0.087-1.024,0.346-1.52,0.777
			s-0.95,0.938-1.359,1.52c-0.41,0.583-0.702,1.047-0.874,1.392c-0.69,1.122-1.035,2.298-1.035,3.527c0,1.23-0.043,2.492-0.13,3.786
			v0.582h-0.065l-2.135,0.195l-0.389,0.064v-0.064C313.345,131.432,313.302,130.159,313.432,128.951z"/>
		<path fill="#4FCADA" d="M322.475,116.282c-0.389-0.13-0.68-0.313-0.875-0.551c-0.193-0.237-0.291-0.497-0.291-0.778
			s0.098-0.541,0.291-0.779c0.195-0.237,0.486-0.399,0.875-0.486c1.122,0,2.255-0.043,3.398-0.13
			c1.144-0.086,2.276-0.194,3.397-0.324l0.259-8.149c0.043-0.431,0.184-0.777,0.422-1.036c0.237-0.259,0.508-0.398,0.811-0.42
			c0.303-0.022,0.583,0.076,0.842,0.292c0.259,0.216,0.432,0.561,0.519,1.035l-0.259,8.025l3.883-0.194
			c0.475,0.043,0.821,0.195,1.036,0.454c0.216,0.259,0.323,0.54,0.323,0.842s-0.119,0.584-0.356,0.843
			c-0.237,0.26-0.572,0.411-1.003,0.454l-4.01,0.195c-0.087,2.93-0.076,5.831,0.032,8.7c0.108,2.87,0.399,5.751,0.875,8.641
			c0.043,0.475-0.034,0.841-0.227,1.1c-0.194,0.259-0.431,0.42-0.712,0.485c-0.281,0.064-0.573,0.01-0.876-0.162
			c-0.303-0.173-0.541-0.454-0.714-0.841c-0.477-2.978-0.768-5.923-0.876-8.835c-0.109-2.912-0.12-5.857-0.033-8.835
			c-1.122,0.13-2.244,0.238-3.366,0.324C324.719,116.239,323.597,116.282,322.475,116.282z"/>
		<path fill="#4FCADA" d="M347.54,124.157c-0.821,0.044-1.316-0.28-1.488-0.971c-0.691-0.216-1.532-0.247-2.525-0.097
			c-0.993,0.151-1.834,0.356-2.524,0.615c0.949,0.389,2.038,0.723,3.268,1.003c1.23,0.281,2.405,0.615,3.527,1.003
			c1.122,0.389,2.104,0.885,2.945,1.489c0.841,0.604,1.37,1.402,1.586,2.394l-0.517,1.489c-0.864,0.562-2.137,1.036-3.82,1.424
			c-1.683,0.389-3.398,0.593-5.146,0.615c-1.748,0.022-3.354-0.183-4.821-0.615c-1.467-0.431-2.395-1.208-2.783-2.33l0.389-1.166
			l0.776-0.776c0.303-0.172,0.604-0.248,0.907-0.226c0.302,0.022,0.561,0.119,0.776,0.291c0.216,0.173,0.356,0.41,0.421,0.713
			c0.064,0.303,0.01,0.604-0.162,0.906c0.734,0.259,1.575,0.443,2.524,0.551c0.949,0.108,1.921,0.14,2.913,0.097
			c0.993-0.043,1.974-0.151,2.945-0.323c0.971-0.172,1.845-0.431,2.622-0.777c-0.518-0.561-1.392-1.013-2.622-1.359
			c-1.23-0.345-2.492-0.69-3.786-1.035c-1.295-0.345-2.481-0.734-3.56-1.166c-1.08-0.431-1.705-1.014-1.877-1.748
			c-0.13-0.518,0-1.014,0.389-1.489c0.388-0.475,0.938-0.873,1.65-1.197c0.712-0.323,1.521-0.571,2.428-0.744
			c0.906-0.172,1.801-0.259,2.686-0.259c0.884,0,1.693,0.119,2.427,0.356s1.294,0.594,1.683,1.069v1.617
			C348.467,123.812,348.058,124.028,347.54,124.157z"/>
		<path fill="#4FCADA" d="M360.92,116.282c-0.389-0.13-0.68-0.313-0.875-0.551c-0.193-0.237-0.291-0.497-0.291-0.778
			s0.098-0.541,0.291-0.779c0.195-0.237,0.486-0.399,0.875-0.486c1.122,0,2.255-0.043,3.398-0.13
			c1.144-0.086,2.276-0.194,3.397-0.324l0.259-8.149c0.044-0.431,0.184-0.777,0.422-1.036c0.237-0.259,0.508-0.398,0.811-0.42
			c0.303-0.022,0.583,0.076,0.842,0.292c0.259,0.216,0.432,0.561,0.519,1.035l-0.259,8.025l3.883-0.194
			c0.475,0.043,0.821,0.195,1.036,0.454c0.216,0.259,0.323,0.54,0.323,0.842s-0.119,0.584-0.356,0.843
			c-0.237,0.26-0.572,0.411-1.003,0.454l-4.01,0.195c-0.087,2.93-0.076,5.831,0.032,8.7c0.108,2.87,0.399,5.751,0.875,8.641
			c0.043,0.475-0.034,0.841-0.227,1.1c-0.194,0.259-0.431,0.42-0.712,0.485c-0.281,0.064-0.573,0.01-0.876-0.162
			c-0.302-0.173-0.541-0.454-0.714-0.841c-0.477-2.978-0.768-5.923-0.876-8.835c-0.109-2.912-0.12-5.857-0.033-8.835
			c-1.122,0.13-2.244,0.238-3.366,0.324C363.164,116.239,362.042,116.282,360.92,116.282z"/>
		<path fill="#4FCADA" d="M381.067,120.467c0.043,0.043,0.086,0.065,0.13,0.065c1.121,0.087,2.081,0.551,2.88,1.392
			c0.798,0.841,1.369,1.845,1.715,3.009c0.345,1.165,0.442,2.373,0.292,3.624c-0.151,1.252-0.615,2.331-1.392,3.237
			c-0.389,0.432-0.874,0.745-1.456,0.939c-0.583,0.194-1.187,0.323-1.813,0.388c-0.626,0.065-1.252,0.076-1.876,0.033
			c-0.626-0.043-1.176-0.086-1.651-0.13c-1.511-0.086-2.664-0.539-3.463-1.359c-0.799-0.82-1.294-1.801-1.489-2.945
			c-0.193-1.143-0.118-2.33,0.227-3.56c0.345-1.23,0.885-2.298,1.618-3.204c0.734-0.906,1.639-1.531,2.718-1.876
			C378.584,119.735,379.772,119.864,381.067,120.467z M380.031,123.25c-0.432,0.217-0.799,0.249-1.1,0.098
			c-0.302-0.15-0.518-0.378-0.648-0.68c-0.69,0.173-1.262,0.572-1.715,1.198c-0.453,0.626-0.777,1.316-0.971,2.071
			s-0.237,1.489-0.13,2.201s0.399,1.219,0.874,1.52c0.69,0.475,1.489,0.755,2.395,0.841c0.906,0.087,1.747,0.087,2.524,0
			c0.906-0.129,1.553-0.495,1.942-1.099c0.388-0.604,0.561-1.294,0.517-2.071c-0.044-0.777-0.237-1.543-0.582-2.299
			c-0.345-0.755-0.798-1.327-1.358-1.715c-0.087-0.086-0.259-0.172-0.518-0.259h-0.389
			C380.613,123.057,380.332,123.122,380.031,123.25z"/>
		<path fill="#4FCADA" d="M402.036,119.626c0.345,0,0.679-0.01,1.003-0.032c0.323-0.022,0.636-0.033,0.938-0.033
			c0,0.345,0,0.69,0,1.035c0,0.346,0.022,0.691,0.065,1.036c0-0.086,0.01-0.14,0.032-0.162c0.022-0.022,0.033-0.075,0.033-0.162
			c0.172-0.475,0.398-0.981,0.679-1.52c0.281-0.54,0.615-1.014,1.003-1.425c0.389-0.409,0.83-0.679,1.327-0.809
			c0.496-0.129,1.068-0.043,1.716,0.259c0.561,0.259,1.024,0.821,1.391,1.684c0.367,0.863,0.68,1.876,0.939,3.041
			c0.561-1.337,1.316-2.415,2.265-3.236l1.618-0.13c1.035,0.734,1.866,1.684,2.491,2.848c0.626,1.165,1.111,2.416,1.456,3.754
			c0.345,1.339,0.593,2.698,0.744,4.078c0.151,1.381,0.27,2.653,0.357,3.818c-0.087,0.389-0.238,0.691-0.454,0.907
			s-0.464,0.323-0.744,0.323s-0.55-0.098-0.809-0.291c-0.259-0.195-0.454-0.465-0.582-0.81c-0.043-0.561-0.141-1.445-0.292-2.653
			c-0.151-1.208-0.356-2.448-0.615-3.721c-0.259-1.273-0.583-2.438-0.971-3.496c-0.389-1.057-0.82-1.736-1.294-2.039
			c-0.476,0.475-0.831,1.23-1.069,2.265c-0.237,1.036-0.41,2.147-0.518,3.334s-0.172,2.33-0.194,3.43
			c-0.022,1.1-0.033,1.952-0.033,2.557l-2.588,0.518v-0.389c-0.217-2.201-0.454-4.444-0.713-6.731
			c-0.259-2.287-0.776-4.487-1.553-6.602c-0.518,0.173-0.917,0.863-1.198,2.071s-0.485,2.557-0.615,4.045
			c-0.129,1.489-0.216,2.935-0.259,4.337s-0.064,2.362-0.064,2.88c-0.216,0-0.442,0-0.679,0c-0.237,0-0.485,0.021-0.744,0.064
			l-1.165,0.389v-0.323c-0.475-2.373-0.853-4.692-1.134-6.958s-0.42-4.628-0.42-7.087h0.259c0.086,0,0.15-0.011,0.194-0.033
			S401.949,119.626,402.036,119.626z"/>
		<path fill="#4FCADA" d="M422.748,121.438c0.043-0.431,0.183-0.776,0.42-1.035c0.237-0.259,0.506-0.399,0.809-0.421
			c0.302-0.022,0.583,0.076,0.842,0.292c0.259,0.216,0.431,0.561,0.518,1.035c0.086,0.993,0.237,1.985,0.453,2.978
			s0.366,1.985,0.453,2.978c0.043,0.475,0.033,0.982-0.033,1.521s-0.097,1.068-0.097,1.585c1.38-1.208,2.394-2.566,3.042-4.077
			c0.648-1.511,1.295-3.085,1.943-4.726c0.259-0.086,0.528-0.15,0.809-0.194c0.281-0.043,0.571-0.108,0.874-0.195l-0.064-0.13
			c0.043,0,0.074,0.011,0.096,0.033c0.022,0.022,0.054,0.033,0.098,0.033c-0.043,0-0.087,0.022-0.13,0.064l0.907,1.166
			c0.043,0.648,0.053,1.328,0.032,2.039c-0.022,0.712,0.011,1.424,0.097,2.135c0.086,0.712,0.237,1.381,0.453,2.007
			c0.216,0.626,0.562,1.197,1.036,1.714c0.345,0.734,0.281,1.317-0.194,1.748c-0.475,0.432-1.058,0.432-1.748,0
			c-0.604-0.647-1.057-1.347-1.359-2.103s-0.518-1.564-0.647-2.428c-0.432,0.864-0.917,1.716-1.457,2.558
			c-0.54,0.841-1.1,1.553-1.683,2.135c-0.583,0.583-1.176,0.982-1.78,1.197s-1.186,0.13-1.747-0.259
			c-0.475-0.302-0.788-0.69-0.939-1.165c-0.151-0.475-0.226-0.971-0.226-1.489c0-0.518,0.032-1.046,0.097-1.586
			s0.076-1.025,0.033-1.456c-0.087-0.993-0.237-1.985-0.453-2.978C422.985,123.423,422.834,122.431,422.748,121.438z"/>
		<path fill="#4FCADA" d="M450.125,124.157c-0.821,0.044-1.316-0.28-1.488-0.971c-0.691-0.216-1.532-0.247-2.525-0.097
			c-0.993,0.151-1.834,0.356-2.524,0.615c0.949,0.389,2.039,0.723,3.268,1.003c1.23,0.281,2.405,0.615,3.527,1.003
			c1.122,0.389,2.104,0.885,2.945,1.489c0.841,0.604,1.37,1.402,1.586,2.394l-0.517,1.489c-0.864,0.562-2.137,1.036-3.82,1.424
			c-1.683,0.389-3.398,0.593-5.146,0.615c-1.748,0.022-3.354-0.183-4.821-0.615c-1.467-0.431-2.395-1.208-2.783-2.33l0.389-1.166
			l0.776-0.776c0.303-0.172,0.604-0.248,0.907-0.226c0.302,0.022,0.561,0.119,0.776,0.291c0.216,0.173,0.356,0.41,0.421,0.713
			c0.064,0.303,0.01,0.604-0.162,0.906c0.734,0.259,1.575,0.443,2.524,0.551s1.921,0.14,2.913,0.097
			c0.993-0.043,1.974-0.151,2.945-0.323c0.971-0.172,1.845-0.431,2.622-0.777c-0.518-0.561-1.392-1.013-2.622-1.359
			c-1.23-0.345-2.492-0.69-3.786-1.035c-1.295-0.345-2.481-0.734-3.56-1.166c-1.08-0.431-1.705-1.014-1.877-1.748
			c-0.13-0.518,0-1.014,0.389-1.489c0.388-0.475,0.938-0.873,1.65-1.197c0.712-0.323,1.521-0.571,2.428-0.744
			c0.906-0.172,1.801-0.259,2.686-0.259c0.884,0,1.693,0.119,2.427,0.356c0.734,0.237,1.294,0.594,1.683,1.069v1.617
			C451.052,123.812,450.643,124.028,450.125,124.157z"/>
		<path fill="#4FCADA" d="M458.863,122.358c0.043-0.431,0.183-0.777,0.42-1.036c0.237-0.259,0.506-0.398,0.809-0.42
			c0.303-0.022,0.583,0.076,0.842,0.292c0.259,0.216,0.431,0.561,0.518,1.035c0.258,1.64,0.441,3.291,0.55,4.952
			c0.108,1.661,0.248,3.312,0.421,4.951c0.129,0.303,0.172,0.604,0.129,0.907c0,0.043-0.011,0.085-0.033,0.127
			c-0.022,0.043-0.033,0.085-0.033,0.127l-2.524-0.253c-0.259-1.812-0.443-3.592-0.551-5.339
			C459.305,125.95,459.122,124.171,458.863,122.358z M460.61,112.981c0.389,0.217,0.648,0.476,0.777,0.777
			c0.13,0.303,0.151,0.604,0.065,0.907c-0.087,0.303-0.292,0.529-0.615,0.679c-0.324,0.151-0.702,0.162-1.133,0.033h-0.065
			l-0.517-0.13c0.043-0.431,0.064-0.863,0.064-1.294s0-0.861,0-1.288h0.065c0.172,0,0.344,0.043,0.517,0.127
			C459.984,112.791,460.265,112.854,460.61,112.981z"/>
		<path fill="#4FCADA" d="M476.274,122.15c-0.087,0.39-0.238,0.691-0.454,0.907c-0.216,0.216-0.464,0.323-0.744,0.323
			s-0.55-0.097-0.809-0.291c-0.259-0.194-0.454-0.464-0.582-0.81v-0.064c-0.475-0.172-0.971-0.345-1.489-0.518
			c-0.518-0.172-1.035-0.302-1.553-0.389c-0.907-0.086-1.64,0.13-2.201,0.648c-0.562,0.518-0.971,1.166-1.23,1.943
			c-0.259,0.777-0.346,1.597-0.259,2.46c0.086,0.863,0.323,1.597,0.712,2.2c0.475,0.691,1.035,1.166,1.683,1.425
			c0.647,0.259,1.316,0.378,2.007,0.356c0.69-0.022,1.392-0.14,2.104-0.356s1.369-0.475,1.974-0.777
			c0.388-0.086,0.722-0.064,1.002,0.065c0.281,0.13,0.485,0.312,0.615,0.55c0.129,0.237,0.162,0.507,0.098,0.81
			c-0.065,0.303-0.248,0.582-0.551,0.84c-1.511,0.734-3.009,1.166-4.498,1.295s-2.817-0.086-3.981-0.648
			c-1.165-0.561-2.104-1.456-2.816-2.686s-1.024-2.816-0.938-4.757c0.043-0.604,0.184-1.23,0.421-1.877
			c0.237-0.647,0.55-1.165,0.938-1.553c0.345-0.345,0.647-0.723,0.906-1.133c0.259-0.409,0.626-0.657,1.101-0.744
			c0.647-0.172,1.434-0.302,2.362-0.389c0.927-0.086,1.823-0.043,2.686,0.13c0.863,0.173,1.629,0.497,2.298,0.972
			C475.744,120.554,476.144,121.245,476.274,122.15z"/>
	</g>
</g>
</svg>
